# xmcd
#
# Track frame offsets:
#	182
#	15693
#	30440
#	44519
#	55117
#	70332
#	83737
#	97334
#	110731
#	123383
#	136492
#	149000
#	161089
#	175257
#	187076
#	201313
#	213476
#	225028
#
# Disc length: 3152 seconds
#
# Revision: 3
# Processed by: cddbd v1.5.2PL0 Copyright (c) Steve Scherf et al.
# Submitted via: audiograbber 1.83.01
#
DISCID=0c0c4e12
DTITLE=Various Artist - Hillbilly Blues 1928-1946, Volume #1
DYEAR=1997
DGENRE=blues
TTITLE0=Jimmie Rodgers - Blue Yodel
TTITLE1=Darby and Tarlton - Heavy Hearted Blues
TTITLE2=Darby and Tarlton - Freight Train Ramble
TTITLE3=Jimmie Davis - Arabella Blues
TTITLE4=Jimmie Davis - Sewing Machine Blues
TTITLE5=Delmore Brothers - Lonesome Jailhouse Blues
TTITLE6=Riley Puckett - Chain Gang Blues
TTITLE7=Jimmie Davis - Easy Rider Blues
TTITLE8=Allen Brothers - New Deal Blues
TTITLE9=Milton Brown - Somebody's Been Using That Thing
TTITLE10=Milton Brown - Texas Hambone Blues
TTITLE11=Hartman's Heartbreakers - No Huggin' or Kissin'
TTITLE12=Hartman's Heartbreakers - Grandma and Grandpa
TTITLE13=Bob Wills - Swing Blues #1
TTITLE14=Buddy Jones - Mean Old Lonesome Blues
TTITLE15=Helen Hunt - Married Man Blues
TTITLE16=Adolph Hofner - I'll Keep My Old Guitar
TTITLE17=Rambling Rangers - Gettin' Tired
EXTD=
EXTT0=
EXTT1=
EXTT2=
EXTT3=
EXTT4=
EXTT5=
EXTT6=
EXTT7=
EXTT8=
EXTT9=
EXTT10=
EXTT11=
EXTT12=
EXTT13=
EXTT14=
EXTT15=
EXTT16=
EXTT17=
PLAYORDER=
